<svg width="220" height="92" viewBox="0 0 220 92" fill="none" xmlns="http://www.w3.org/2000/svg">
<g id="Frame" clip-path="url(#clip0_58_8260)">
<g id="Group">
<path id="Vector" d="M157.729 26.9866C166.181 26.9866 173.017 33.7333 173.017 42.0746H176.124C176.124 32.016 167.797 23.92 157.729 23.92C147.661 23.92 139.333 32.1386 139.333 42.0746V73.4773C139.333 83.536 147.661 91.632 157.729 91.632C167.797 91.632 176.124 83.4133 176.124 73.4773H173.017C173.017 81.8187 166.181 88.5653 157.729 88.5653C149.277 88.5653 142.441 81.8187 142.441 73.4773V42.0746C142.441 33.7333 149.277 26.9866 157.729 26.9866Z" fill="#0FA24A"/>
<path id="Vector_2" d="M29.8306 42.0747V90.4053H32.9379V42.0747C32.9379 33.7333 39.7741 26.9867 48.226 26.9867V23.92C38.1582 23.7973 29.8306 32.016 29.8306 42.0747Z" fill="#0FA24A"/>
<path id="Vector_3" d="M36.9153 18.1547C36.9153 8.21867 28.5876 0 18.3955 0C8.20339 0 0 8.21867 0 18.1547V90.4053H3.10734V48.944H18.2712V45.8773H3.10734V18.1547C3.10734 9.81333 9.9435 3.06667 18.3955 3.06667C26.8475 3.06667 33.6836 9.81333 33.6836 18.1547H36.9153Z" fill="#0FA24A"/>
<path id="Vector_4" d="M114.972 23.7973C104.78 23.7973 96.5764 32.016 96.5764 41.952V90.4053H99.6838V42.0747C99.6838 33.7333 106.52 26.9867 114.972 26.9867C123.424 26.9867 130.26 33.7333 130.26 42.0747V90.528H133.367V42.0747C133.492 32.016 125.164 23.7973 114.972 23.7973Z" fill="#0FA24A"/>
<path id="Vector_5" d="M89.2429 73.4773V64.4V42.0746C89.2429 32.016 80.9152 23.92 70.8474 23.92C60.7796 23.92 52.4519 32.1386 52.4519 42.0746V73.4773C52.4519 83.536 60.7796 91.632 70.8474 91.632C77.1864 91.632 82.7796 88.4426 86.1355 83.6587V91.1413H90.8587V88.0747H89.2429V73.4773ZM70.8474 88.5653C62.3954 88.5653 55.5592 81.8187 55.5592 73.4773V42.0746C55.5592 33.7333 62.3954 26.9866 70.8474 26.9866C79.2994 26.9866 86.1355 33.7333 86.1355 42.0746V64.4V73.4773C86.1355 81.8187 79.1751 88.5653 70.8474 88.5653Z" fill="#0FA24A"/>
<path id="Vector_6" d="M218.135 88.0747V73.4773V64.4V42.0746C218.135 32.016 209.808 23.92 199.74 23.92C189.672 23.92 181.344 32.1386 181.344 42.0746V73.4773C181.344 83.536 189.672 91.632 199.74 91.632C206.079 91.632 211.672 88.4426 215.028 83.6587V91.1413H219.751V88.0747H218.135ZM199.616 88.5653C191.164 88.5653 184.328 81.8187 184.328 73.4773V42.0746C184.328 33.7333 191.164 26.9866 199.616 26.9866C208.068 26.9866 214.904 33.7333 214.904 42.0746V64.4V73.4773C214.904 81.8187 208.068 88.5653 199.616 88.5653Z" fill="#0FA24A"/>
</g>
</g>
<defs>
<clipPath id="clip0_58_8260">
<rect width="220" height="92" fill="white"/>
</clipPath>
</defs>
</svg>
