<svg width="112" height="47" viewBox="0 0 112 47" fill="none" xmlns="http://www.w3.org/2000/svg">
<g id="Group">
<path id="Vector" d="M80.2983 13.7866C84.6011 13.7866 88.0814 17.2333 88.0814 21.4946H89.6633C89.6633 16.356 85.4237 12.22 80.2983 12.22C75.1729 12.22 70.9333 16.4186 70.9333 21.4946V37.5373C70.9333 42.676 75.1729 46.812 80.2983 46.812C85.4237 46.812 89.6633 42.6133 89.6633 37.5373H88.0814C88.0814 41.7986 84.6011 45.2453 80.2983 45.2453C75.9955 45.2453 72.5153 41.7986 72.5153 37.5373V21.4946C72.5153 17.2333 75.9955 13.7866 80.2983 13.7866Z" fill="#172826"/>
<path id="Vector_2" d="M15.1865 21.4947V46.1853H16.7684V21.4947C16.7684 17.2333 20.2487 13.7867 24.5515 13.7867V12.22C19.4261 12.1573 15.1865 16.356 15.1865 21.4947Z" fill="#172826"/>
<path id="Vector_3" d="M18.7932 9.27467C18.7932 4.19867 14.5537 0 9.36497 0C4.17627 0 0 4.19867 0 9.27467V46.1853H1.58192V25.004H9.30169V23.4373H1.58192V9.27467C1.58192 5.01333 5.06215 1.56667 9.36497 1.56667C13.6678 1.56667 17.148 5.01333 17.148 9.27467H18.7932Z" fill="#172826"/>
<path id="Vector_4" d="M58.531 12.1573C53.3423 12.1573 49.166 16.356 49.166 21.432V46.1853H50.7479V21.4947C50.7479 17.2333 54.2282 13.7867 58.531 13.7867C62.8338 13.7867 66.314 17.2333 66.314 21.4947V46.248H67.896V21.4947C67.9592 16.356 63.7197 12.1573 58.531 12.1573Z" fill="#172826"/>
<path id="Vector_5" d="M45.4328 37.5373V32.9V21.4946C45.4328 16.356 41.1933 12.22 36.0679 12.22C30.9424 12.22 26.7029 16.4186 26.7029 21.4946V37.5373C26.7029 42.676 30.9424 46.812 36.0679 46.812C39.295 46.812 42.1424 45.1826 43.8509 42.7386V46.5613H46.2554V44.9946H45.4328V37.5373ZM36.0679 45.2453C31.765 45.2453 28.2848 41.7986 28.2848 37.5373V21.4946C28.2848 17.2333 31.765 13.7866 36.0679 13.7866C40.3707 13.7866 43.8509 17.2333 43.8509 21.4946V32.9V37.5373C43.8509 41.7986 40.3074 45.2453 36.0679 45.2453Z" fill="#172826"/>
<path id="Vector_6" d="M111.051 44.9946V37.5373V32.9V21.4946C111.051 16.356 106.811 12.22 101.686 12.22C96.5604 12.22 92.3208 16.4186 92.3208 21.4946V37.5373C92.3208 42.676 96.5604 46.812 101.686 46.812C104.913 46.812 107.76 45.1826 109.469 42.7386V46.5613H111.873V44.9946H111.051ZM101.623 45.2453C97.3197 45.2453 93.8395 41.7986 93.8395 37.5373V21.4946C93.8395 17.2333 97.3197 13.7866 101.623 13.7866C105.925 13.7866 109.406 17.2333 109.406 21.4946V32.9V37.5373C109.406 41.7986 105.925 45.2453 101.623 45.2453Z" fill="#172826"/>
</g>
</svg>
