<svg width="20" height="24" viewBox="0 0 20 24" fill="none" xmlns="http://www.w3.org/2000/svg">
<path id="Vector" d="M2.19627 24C1.57051 24 1.04803 23.7944 0.628818 23.3833C0.209606 22.9722 0 22.4598 0 21.8462V7.48717C0 6.8735 0.209606 6.36111 0.628818 5.95C1.04803 5.53889 1.57051 5.33333 2.19627 5.33333H4.75862V4.66667C4.75862 3.37093 5.22141 2.26922 6.14698 1.36153C7.07256 0.453845 8.19597 0 9.51724 0C10.8385 0 11.9619 0.453845 12.8875 1.36153C13.8131 2.26922 14.2759 3.37093 14.2759 4.66667V5.33333H16.8382C17.464 5.33333 17.9865 5.53889 18.4057 5.95C18.8249 6.36111 19.0345 6.8735 19.0345 7.48717V21.8462C19.0345 22.4598 18.8249 22.9722 18.4057 23.3833C17.9865 23.7944 17.464 24 16.8382 24H2.19627ZM2.19627 22.6667H16.8382C17.0474 22.6667 17.2391 22.5812 17.4134 22.4103C17.5877 22.2393 17.6749 22.0513 17.6749 21.8462V7.48717C17.6749 7.28206 17.5877 7.09402 17.4134 6.92307C17.2391 6.75213 17.0474 6.66667 16.8382 6.66667H14.2759V10C14.2759 10.1897 14.2109 10.3483 14.0811 10.4756C13.9512 10.603 13.7896 10.6667 13.5961 10.6667C13.4026 10.6667 13.2409 10.603 13.1111 10.4756C12.9812 10.3483 12.9163 10.1897 12.9163 10V6.66667H6.11823V10C6.11823 10.1897 6.05329 10.3483 5.92343 10.4756C5.79359 10.603 5.63192 10.6667 5.43842 10.6667C5.24493 10.6667 5.08326 10.603 4.95342 10.4756C4.82355 10.3483 4.75862 10.1897 4.75862 10V6.66667H2.19627C1.98712 6.66667 1.79538 6.75213 1.62106 6.92307C1.44676 7.09402 1.35961 7.28206 1.35961 7.48717V21.8462C1.35961 22.0513 1.44676 22.2393 1.62106 22.4103C1.79538 22.5812 1.98712 22.6667 2.19627 22.6667ZM6.11823 5.33333H12.9163V4.66667C12.9163 3.7282 12.589 2.93803 11.9344 2.29617C11.2799 1.65428 10.4742 1.33333 9.51724 1.33333C8.56028 1.33333 7.75455 1.65428 7.10003 2.29617C6.44549 2.93803 6.11823 3.7282 6.11823 4.66667V5.33333Z" fill="black"/>
</svg>
